<svg width="12" height="12" viewBox="0 0 12 12" fill="none" xmlns="http://www.w3.org/2000/svg">
<path d="M8.5 10C8.5 9.1715 7.3805 8.5 6 8.5C4.6195 8.5 3.5 9.1715 3.5 10M10.5 8.5C10.5 7.885 9.883 7.3565 9 7.125M1.5 8.5C1.5 7.885 2.117 7.3565 3 7.125M9 5.118C9.14813 4.98704 9.26891 4.8281 9.35539 4.6503C9.44188 4.4725 9.49235 4.27936 9.50393 4.08198C9.5155 3.8846 9.48794 3.68688 9.42282 3.5002C9.35771 3.31351 9.25633 3.14154 9.12452 2.99417C8.9927 2.8468 8.83306 2.72695 8.65476 2.6415C8.47646 2.55605 8.28303 2.5067 8.08559 2.49627C7.88814 2.48585 7.69059 2.51456 7.50428 2.58076C7.31798 2.64695 7.1466 2.74933 7 2.882M3 5.118C2.70615 4.85207 2.52948 4.48066 2.50858 4.0849C2.48769 3.68913 2.62426 3.30118 2.88848 3.00579C3.15269 2.7104 3.52307 2.53158 3.91871 2.50838C4.31434 2.48519 4.70308 2.61951 5 2.882M6 7C5.80302 7 5.60796 6.9612 5.42597 6.88582C5.24399 6.81044 5.07863 6.69995 4.93934 6.56066C4.80005 6.42137 4.68956 6.25601 4.61418 6.07402C4.5388 5.89204 4.5 5.69698 4.5 5.5C4.5 5.30302 4.5388 5.10796 4.61418 4.92597C4.68956 4.74398 4.80005 4.57863 4.93934 4.43934C5.07863 4.30005 5.24399 4.18956 5.42597 4.11418C5.60796 4.0388 5.80302 4 6 4C6.39782 4 6.77936 4.15803 7.06066 4.43934C7.34196 4.72064 7.5 5.10217 7.5 5.5C7.5 5.89782 7.34196 6.27935 7.06066 6.56066C6.77936 6.84196 6.39782 7 6 7Z" stroke="black" stroke-linecap="round" stroke-linejoin="round"/>
</svg>
