<svg width="12" height="12" viewBox="0 0 12 12" fill="none" xmlns="http://www.w3.org/2000/svg">
<path d="M3.5 11V8H2.7C2.36667 8 2.08333 7.88333 1.85 7.65C1.61667 7.41667 1.5 7.13333 1.5 6.8C1.5 6.55833 1.56667 6.3355 1.7 6.1315C1.83333 5.9275 2.00833 5.77533 2.225 5.675L5.5 4.225V3.9C5.2 3.79167 4.95833 3.6105 4.775 3.3565C4.59167 3.1025 4.5 2.817 4.5 2.5C4.5 2.08333 4.64583 1.72917 4.9375 1.4375C5.22917 1.14583 5.58333 1 6 1C6.41667 1 6.77083 1.14583 7.0625 1.4375C7.35417 1.72917 7.5 2.08333 7.5 2.5H6.5C6.5 2.35833 6.452 2.23967 6.356 2.144C6.26 2.04833 6.14133 2.00033 6 2C5.85867 1.99967 5.74 2.04767 5.644 2.144C5.548 2.24033 5.5 2.359 5.5 2.5C5.5 2.641 5.548 2.75983 5.644 2.8565C5.74 2.95317 5.85867 3.001 6 3C6.14133 2.999 6.26017 3.047 6.3565 3.144C6.45283 3.241 6.50067 3.35967 6.5 3.5V4.225L9.775 5.675C9.99167 5.775 10.1667 5.92717 10.3 6.1315C10.4333 6.33583 10.5 6.55867 10.5 6.8C10.5 7.13333 10.3833 7.41667 10.15 7.65C9.91667 7.88333 9.63333 8 9.3 8H8.5V11H3.5ZM2.7 7H3.5V6.5H8.5V7H9.3C9.35833 7 9.40633 6.97917 9.444 6.9375C9.48167 6.89583 9.50033 6.84167 9.5 6.775C9.5 6.73333 9.48967 6.69783 9.469 6.6685C9.44833 6.63917 9.417 6.61633 9.375 6.6L6 5.1L2.625 6.6C2.58333 6.61667 2.55217 6.63967 2.5315 6.669C2.51083 6.69833 2.50033 6.73367 2.5 6.775C2.5 6.84167 2.51883 6.89583 2.5565 6.9375C2.59417 6.97917 2.642 7 2.7 7ZM4.5 10H7.5V7.5H4.5V10Z" fill="black"/>
</svg>
