<svg width="12" height="12" viewBox="0 0 12 12" fill="none" xmlns="http://www.w3.org/2000/svg">
<g clip-path="url(#clip0_61_1768)">
<path d="M0.5 11C0.5 11.27 0.725 11.5 1 11.5H7.5C7.78 11.5 8 11.27 8 11V10.5H0.5V11ZM4.25 4.5C2.375 4.5 0.5 5.5 0.5 7.5H8C8 5.5 6.125 4.5 4.25 4.5ZM1.81 6.5C2.365 5.725 3.545 5.5 4.25 5.5C4.955 5.5 6.135 5.725 6.69 6.5H1.81ZM0.5 8.5H8V9.5H0.5V8.5ZM9 2.5V0.5H8V2.5H5.5L5.615 3.5H10.395L9.695 10.5H9V11.5H9.86C10.28 11.5 10.625 11.175 10.675 10.765L11.5 2.5H9Z" fill="black"/>
</g>
<defs>
<clipPath id="clip0_61_1768">
<rect width="12" height="12" fill="white"/>
</clipPath>
</defs>
</svg>
