<svg width="12" height="12" viewBox="0 0 12 12" fill="none" xmlns="http://www.w3.org/2000/svg">
<path d="M9.75 0.9375H3.375C2.92745 0.9375 2.49822 1.11529 2.18176 1.43176C1.86529 1.74822 1.6875 2.17745 1.6875 2.625V10.5C1.6875 10.6492 1.74676 10.7923 1.85225 10.8977C1.95774 11.0032 2.10082 11.0625 2.25 11.0625H9C9.14918 11.0625 9.29226 11.0032 9.39775 10.8977C9.50324 10.7923 9.5625 10.6492 9.5625 10.5C9.5625 10.3508 9.50324 10.2077 9.39775 10.1023C9.29226 9.99676 9.14918 9.9375 9 9.9375H2.8125V9.75C2.8125 9.60082 2.87176 9.45774 2.97725 9.35225C3.08274 9.24676 3.22582 9.1875 3.375 9.1875H9.75C9.89918 9.1875 10.0423 9.12824 10.1477 9.02275C10.2532 8.91726 10.3125 8.77418 10.3125 8.625V1.5C10.3125 1.35082 10.2532 1.20774 10.1477 1.10225C10.0423 0.996763 9.89918 0.9375 9.75 0.9375ZM9.1875 8.0625H3.375C3.18335 8.06215 2.99306 8.09481 2.8125 8.15906V2.625C2.8125 2.47582 2.87176 2.33274 2.97725 2.22725C3.08274 2.12176 3.22582 2.0625 3.375 2.0625H9.1875V8.0625Z" fill="black"/>
</svg>
