<svg width="12" height="12" viewBox="0 0 12 12" fill="none" xmlns="http://www.w3.org/2000/svg">
<g clip-path="url(#clip0_61_1781)">
<path d="M11.625 6C11.625 6.09946 11.5855 6.19484 11.5152 6.26517C11.4448 6.33549 11.3495 6.375 11.25 6.375H10.4686C10.3793 6.89897 10.1076 7.37451 9.70166 7.7176C9.29569 8.0607 8.78153 8.24927 8.25 8.25H6.375V9.375H7.5C7.89782 9.375 8.27936 9.53304 8.56066 9.81434C8.84196 10.0956 9 10.4772 9 10.875C9 10.9745 8.96049 11.0698 8.89017 11.1402C8.81984 11.2105 8.72446 11.25 8.625 11.25C8.52554 11.25 8.43016 11.2105 8.35983 11.1402C8.28951 11.0698 8.25 10.9745 8.25 10.875C8.25 10.6761 8.17098 10.4853 8.03033 10.3447C7.88968 10.204 7.69891 10.125 7.5 10.125H6.375V10.875C6.375 10.9745 6.33549 11.0698 6.26517 11.1402C6.19484 11.2105 6.09946 11.25 6 11.25C5.90054 11.25 5.80516 11.2105 5.73484 11.1402C5.66451 11.0698 5.625 10.9745 5.625 10.875V10.125H4.5C4.30109 10.125 4.11032 10.204 3.96967 10.3447C3.82902 10.4853 3.75 10.6761 3.75 10.875C3.75 10.9745 3.71049 11.0698 3.64016 11.1402C3.56984 11.2105 3.47446 11.25 3.375 11.25C3.27554 11.25 3.18016 11.2105 3.10984 11.1402C3.03951 11.0698 3 10.9745 3 10.875C3 10.4772 3.15804 10.0956 3.43934 9.81434C3.72064 9.53304 4.10218 9.375 4.5 9.375H5.625V8.25H3.75C3.21847 8.24927 2.70431 8.0607 2.29834 7.7176C1.89237 7.37451 1.62073 6.89897 1.53141 6.375H0.75C0.650544 6.375 0.555161 6.33549 0.484835 6.26517C0.414509 6.19484 0.375 6.09946 0.375 6C0.375 5.90054 0.414509 5.80516 0.484835 5.73484C0.555161 5.66451 0.650544 5.625 0.75 5.625H1.875C1.97446 5.625 2.06984 5.66451 2.14016 5.73484C2.21049 5.80516 2.25 5.90054 2.25 6C2.25 6.39782 2.40804 6.77936 2.68934 7.06066C2.97064 7.34196 3.35218 7.5 3.75 7.5H8.25C8.64782 7.5 9.02936 7.34196 9.31066 7.06066C9.59196 6.77936 9.75 6.39782 9.75 6C9.75 5.90054 9.78951 5.80516 9.85983 5.73484C9.93016 5.66451 10.0255 5.625 10.125 5.625H11.25C11.3495 5.625 11.4448 5.66451 11.5152 5.73484C11.5855 5.80516 11.625 5.90054 11.625 6ZM3.18328 6.49125C3.11293 6.4101 3.06083 6.31478 3.0305 6.21175C3.00018 6.10873 2.99233 6.00039 3.0075 5.89406L3.65062 1.39406C3.67687 1.21563 3.76622 1.05253 3.90245 0.934356C4.03869 0.816182 4.21278 0.750772 4.39313 0.75H7.60687C7.78722 0.750772 7.96131 0.816182 8.09755 0.934356C8.23378 1.05253 8.32313 1.21563 8.34937 1.39406L8.9925 5.89406C9.00768 6.00043 8.99982 6.10882 8.96947 6.21188C8.93911 6.31495 8.88697 6.4103 8.81656 6.49146C8.74615 6.57262 8.65913 6.63771 8.56138 6.68231C8.46364 6.72692 8.35744 6.75 8.25 6.75H3.75C3.64251 6.75 3.53628 6.7269 3.4385 6.68225C3.34073 6.63761 3.25369 6.57247 3.18328 6.49125ZM3.75 6H8.25L7.60687 1.5H4.39266L3.75 6Z" fill="black"/>
</g>
<defs>
<clipPath id="clip0_61_1781">
<rect width="12" height="12" fill="white"/>
</clipPath>
</defs>
</svg>
