<svg width="12" height="12" viewBox="0 0 12 12" fill="none" xmlns="http://www.w3.org/2000/svg">
<g clip-path="url(#clip0_61_1757)">
<path d="M4.89051 1.945C5.17251 1.705 5.31351 1.585 5.46051 1.5145C5.62888 1.43399 5.81314 1.3922 5.99976 1.3922C6.18639 1.3922 6.37064 1.43399 6.53901 1.5145C6.68651 1.5845 6.82751 1.7045 7.10901 1.945C7.22151 2.041 7.27751 2.0885 7.33751 2.1285C7.47492 2.22058 7.62923 2.28448 7.79151 2.3165C7.86201 2.3305 7.93551 2.3365 8.08251 2.3485C8.45201 2.3775 8.63651 2.3925 8.79051 2.447C8.96641 2.50907 9.12618 2.60972 9.25812 2.74158C9.39006 2.87343 9.49082 3.03314 9.55301 3.209C9.60751 3.3635 9.62201 3.548 9.65151 3.917C9.66301 4.064 9.66901 4.1375 9.68301 4.2085C9.71501 4.3705 9.77901 4.525 9.87101 4.662C9.91101 4.722 9.95901 4.778 10.0545 4.8905C10.2945 5.1725 10.415 5.3135 10.4855 5.4605C10.566 5.62886 10.6078 5.81312 10.6078 5.99975C10.6078 6.18637 10.566 6.37063 10.4855 6.539C10.4155 6.686 10.295 6.827 10.0545 7.109C9.98893 7.18151 9.92766 7.25781 9.87101 7.3375C9.77898 7.47475 9.71508 7.62889 9.68301 7.791C9.66901 7.862 9.66301 7.9355 9.65151 8.0825C9.62201 8.4515 9.60751 8.6365 9.55301 8.7905C9.49082 8.96635 9.39006 9.12606 9.25812 9.25792C9.12618 9.38977 8.96641 9.49042 8.79051 9.5525C8.63651 9.6075 8.45201 9.622 8.08251 9.651C7.93551 9.663 7.86251 9.66899 7.79151 9.68299C7.62923 9.71501 7.47492 9.77891 7.33751 9.871C7.25799 9.92766 7.18186 9.98893 7.10951 10.0545C6.82751 10.2945 6.68651 10.4145 6.53951 10.485C6.37114 10.5655 6.18689 10.6073 6.00026 10.6073C5.81363 10.6073 5.62938 10.5655 5.46101 10.485C5.31351 10.415 5.17251 10.295 4.89101 10.0545C4.8185 9.98891 4.7422 9.92764 4.66251 9.871C4.52511 9.77891 4.37079 9.71501 4.20851 9.68299C4.11222 9.66665 4.01505 9.65597 3.91751 9.651C3.54801 9.622 3.36351 9.607 3.20951 9.5525C3.03361 9.49042 2.87384 9.38977 2.7419 9.25792C2.60996 9.12606 2.5092 8.96635 2.44701 8.7905C2.39251 8.6365 2.37801 8.4515 2.34851 8.0825C2.34372 7.9848 2.3332 7.88746 2.31701 7.791C2.28494 7.62889 2.22104 7.47475 2.12901 7.3375C2.08901 7.2775 2.04101 7.2215 1.94551 7.109C1.70551 6.827 1.58501 6.686 1.51451 6.539C1.434 6.37063 1.39221 6.18637 1.39221 5.99975C1.39221 5.81312 1.434 5.62886 1.51451 5.4605C1.58501 5.3135 1.70501 5.1725 1.94551 4.8905C2.04101 4.778 2.08901 4.722 2.12901 4.662C2.22104 4.52474 2.28494 4.3706 2.31701 4.2085C2.33101 4.1375 2.33701 4.064 2.34851 3.917C2.37801 3.548 2.39251 3.3635 2.44701 3.209C2.50925 3.03309 2.61009 2.87334 2.74212 2.74149C2.87415 2.60963 3.03402 2.50901 3.21001 2.447C3.36401 2.3925 3.54851 2.3775 3.91801 2.3485C4.06501 2.3365 4.13801 2.3305 4.20901 2.3165C4.37129 2.28448 4.52561 2.22058 4.66301 2.1285C4.72301 2.0885 4.77851 2.041 4.89051 1.945Z" stroke="black"/>
<path d="M4.5 7.5L7.5 4.5" stroke="black" stroke-linecap="round"/>
<path d="M7.75 7.25C7.75 7.38261 7.69732 7.50979 7.60355 7.60355C7.50979 7.69732 7.38261 7.75 7.25 7.75C7.11739 7.75 6.99021 7.69732 6.89645 7.60355C6.80268 7.50979 6.75 7.38261 6.75 7.25C6.75 7.11739 6.80268 6.99021 6.89645 6.89645C6.99021 6.80268 7.11739 6.75 7.25 6.75C7.38261 6.75 7.50979 6.80268 7.60355 6.89645C7.69732 6.99021 7.75 7.11739 7.75 7.25ZM5.25 4.75C5.25 4.88261 5.19732 5.00979 5.10355 5.10355C5.00979 5.19732 4.88261 5.25 4.75 5.25C4.61739 5.25 4.49021 5.19732 4.39645 5.10355C4.30268 5.00979 4.25 4.88261 4.25 4.75C4.25 4.61739 4.30268 4.49021 4.39645 4.39645C4.49021 4.30268 4.61739 4.25 4.75 4.25C4.88261 4.25 5.00979 4.30268 5.10355 4.39645C5.19732 4.49021 5.25 4.61739 5.25 4.75Z" fill="black"/>
</g>
<defs>
<clipPath id="clip0_61_1757">
<rect width="12" height="12" fill="white"/>
</clipPath>
</defs>
</svg>
