<svg width="12" height="12" viewBox="0 0 12 12" fill="none" xmlns="http://www.w3.org/2000/svg">
<path opacity="0.5" d="M8 5H6" stroke="black" stroke-linecap="round"/>
<path d="M2 3.98C2 3.6268 2 3.4504 2.028 3.3032C2.08769 2.98714 2.24125 2.6964 2.46866 2.46892C2.69607 2.24145 2.98675 2.08779 3.3028 2.028C3.4504 2 3.6272 2 3.98 2C4.1344 2 4.212 2 4.2864 2.0068C4.60682 2.03689 4.91071 2.16291 5.1584 2.3684C5.216 2.416 5.2704 2.4704 5.38 2.58L5.6 2.8C5.9264 3.1264 6.0896 3.2896 6.2848 3.398C6.39209 3.4578 6.5059 3.50504 6.624 3.5388C6.8392 3.6 7.07 3.6 7.5312 3.6H7.6808C8.7336 3.6 9.2604 3.6 9.6024 3.908C9.63413 3.936 9.664 3.96587 9.692 3.9976C10 4.3396 10 4.8664 10 5.9192V6.8C10 8.3084 10 9.0628 9.5312 9.5312C9.0624 9.9996 8.3084 10 6.8 10H5.2C3.6916 10 2.9372 10 2.4688 9.5312C2.0004 9.0624 2 8.3084 2 6.8V3.98Z" stroke="black"/>
</svg>
