<svg width="12" height="12" viewBox="0 0 12 12" fill="none" xmlns="http://www.w3.org/2000/svg">
<g clip-path="url(#clip0_61_1749)">
<path d="M8 3C8 2.057 8 1.586 7.707 1.293C7.414 1 6.943 1 6 1C5.057 1 4.586 1 4.293 1.293C4 1.586 4 2.057 4 3M1 7C1 5.1145 1 4.1715 1.586 3.586C2.172 3.0005 3.1145 3 5 3H7C8.8855 3 9.8285 3 10.414 3.586C10.9995 4.172 11 5.1145 11 7C11 8.8855 11 9.8285 10.414 10.414C9.828 10.9995 8.8855 11 7 11H5C3.1145 11 2.1715 11 1.586 10.414C1.0005 9.828 1 8.8855 1 7Z" stroke="black"/>
<path d="M6 8.6665C6.5525 8.6665 7 8.2935 7 7.8335C7 7.3735 6.5525 7 6 7C5.4475 7 5 6.627 5 6.1665C5 5.7065 5.4475 5.3335 6 5.3335M6 8.6665C5.4475 8.6665 5 8.2935 5 7.8335M6 8.6665V9M6 5.3335V5M6 5.3335C6.5525 5.3335 7 5.7065 7 6.1665" stroke="black" stroke-linecap="round"/>
</g>
<defs>
<clipPath id="clip0_61_1749">
<rect width="12" height="12" fill="white"/>
</clipPath>
</defs>
</svg>
